<svg xmlns="http://www.w3.org/2000/svg" viewBox="0 0 714.12 341.44"><g id="Capa_2" data-name="Capa 2"><g id="Capa_1-2" data-name="Capa 1"><path d="M246.93,249.94c-15.37,3.75-30.81,7.21-46.05,11.4-5.92,1.63-9.18-.63-11.13-5.33a32,32,0,0,1-2.61-11.52c-.64-40.63-1-81.26-1.57-121.89-.12-8.88-1.23-17.74-1.27-26.61-.05-10.88,5.17-14.38,15.91-12,14.51,3.23,29.11,6.07,44.41,9.23,0-8,.26-15.26-.16-22.5-.13-2.3-1.7-4.76-3.2-6.7-8.15-10.54-16.45-21-24.78-31.38-2.75-3.44-5.75-6.68-8.64-10-3.58-4.12-6-8.75-3.64-14.15,2.23-5,6.59-6.16,12.08-6.2,25.34-.16,50.68-.75,76-1.3,12.17-.26,24.34-1.1,36.5-1a21.28,21.28,0,0,1,11.69,3.67c15.1,11.09,29.78,22.76,44.68,34.15,8,6.1,16,12.22,24.23,17.93,2.08,1.43,5.25,1.84,7.9,1.8,23.93-.33,47.86-1,71.79-1.29,23.52-.3,46.48,3.43,69,10,32.15,9.4,61.91,24,89.66,42.44,20.23,13.45,39.77,28,59.14,42.65,9.61,7.28,9.51,13.74.2,21.17C687,188.64,666.81,204.68,646,219.88a314.35,314.35,0,0,1-97.52,47.94,181.3,181.3,0,0,1-40,6.88c-24.56,1.46-49.23,1.18-73.85,1.89-10.8.31-20.58,2.49-29.36,10.42-19.08,17.24-39.1,33.47-59,49.78-2.44,2-6.49,2.74-9.84,2.86-11,.38-22.1.09-33.15.27q-40.12.65-80.25,1.5c-5.16.11-9.8-.23-12.57-5.6-2.88-5.57.4-9.38,3.29-13.38,10.83-15,22.18-29.69,32.19-45.23,2.9-4.51,2.31-11.47,2.67-17.35C248.8,256.73,247.58,253.51,246.93,249.94ZM288,260.26c0-3.43,0-6.2,0-9q-.67-50.39-1.32-100.77c-.08-6.68,3.31-10.29,9.35-10.49,4.93-.17,9.12,4.35,9.36,10.25.45,11.22.95,22.45,1.21,33.68.56,24.4,1,48.8,1.49,73.2a17.64,17.64,0,0,0,.82,3.41c3.53-.39,6.74-1,10-1.06q33.08-.81,66.14-1.44c27.23-.51,54.45-.86,81.68-1.46,16.21-.35,32.73.77,48.54-2,25.67-4.51,50.95-11.28,74.07-24.32,4.11-2.32,5.63-4.33,5.54-8.93-.64-35.2-1-70.41-1.5-105.61,0-1.65.09-3.3,0-4.94-.47-6.46-2.18-11.26-9.45-14.06-32-12.33-64.09-22.53-99.35-19.75-25.68,2-51.59,1.33-77.39,1.7-38.51.54-77,.85-115.52,1.51-9,.16-18,1.33-27.25,2.06,1.24,59.49,2.46,118.57,3.7,178Zm-80.24-20.93,39.85-11.11c-.83-38.43-1.64-75.85-2.45-113.41l-40.27-9.91C205.84,150,206.79,194.05,207.75,239.33ZM239,322.06c10.78-.73,19.52-1.69,28.28-1.83,16.45-.28,32.91-.2,49.37,0,11.8.11,22.2-2.24,31.3-10.9,11.22-10.68,23.61-20.13,35.5-30.11-.23-.57-.47-1.14-.7-1.72-10,.63-19.91,1.57-29.87,1.82-26.5.65-53,1-79.51,1.56-2.1.05-5,.72-6.12,2.18C258.06,295.31,249.2,307.85,239,322.06ZM379.25,58.67c-12.4-9.87-24.09-19.14-35.73-28.47C335,23.36,326.16,19,314.34,19.6c-26,1.37-52,1.22-78.08,1.72a9.83,9.83,0,0,0-2.26.75,44.53,44.53,0,0,0,2.65,4.29c6.72,8.41,14,16.45,20.11,25.27,4.55,6.55,8.85,9.59,17.74,9.2,32.56-1.4,65.18-1.32,97.78-1.81C374.37,59,376.45,58.82,379.25,58.67ZM614,217.58c27-17.65,52.1-34.32,75.5-56.7L614,110.08Z"/><path d="M139.86,184.63c-27.63,0-55.27-.16-82.9.06-15,.12-29.9,1-44.86,1.3-7.84.16-11.95-3.32-12.1-9.58-.15-6.57,4.07-10,12.3-10.15q40.79-.67,81.58-1.42c19.92-.39,39.83-1,59.74-1.36,8.07-.15,12.84,3.59,13,9.68s-4.75,10-12.64,10.05c-4.7,0-9.39,0-14.09,0Z"/><path d="M106.42,203.05h44.23c1.41,0,2.83-.07,4.23,0,7.25.47,12.31,4.63,12.13,9.92-.19,5.83-4.81,9.78-12.18,10-22,.55-44.06.92-66.09,1.48-5.35.13-10.69,1-16,1-7.32,0-11.52-3.33-12.17-9.09s2.61-9.85,10.19-10.6c11.84-1.16,23.79-1.35,35.69-2Z"/><path d="M124.57,145.24c-18,0-36,.08-54,0-9.81-.07-14.14-6.87-9.6-15.35,1.1-2,4-3.16,6.15-4.56.51-.34,1.37-.17,2.08-.18,27.64-.49,55.28-1,82.92-1.41,8.13-.11,13,3.55,13.23,9.39.22,6.18-5,10.39-13.29,10.49-9.15.12-18.31,0-27.46,0Z"/><path d="M394.11,170c1-32.65,22.89-59.95,55.26-62.21,15.07-1,27.84,1.81,39.4,10.59,11.36,8.61,20.25,19.16,23.46,33.72,4.68,21.24-.4,39.29-14.62,56-17.56,20.59-50.79,23.33-73,10.82C403.68,207.08,397,188.14,394.11,170Zm100.34-3.31c.74-20-18.2-39.89-40.27-39.56-23.22.34-39.09,15.51-39.12,40.6,0,24.67,15.56,37.71,39.79,39C477.69,208,493.9,186.64,494.45,166.72Z"/><path d="M295.09,120.53a9.85,9.85,0,0,1-9.72-9.78c-.06-5.8,3.76-9.72,9.52-9.76,5.28,0,10.09,4.49,10.14,9.53C305.08,115.4,300.08,120.44,295.09,120.53Z"/></g></g></svg>